<svg xmlns="http://www.w3.org/2000/svg" viewBox="0 0 28 23"><g fill="#5163BA" fill-rule="evenodd"><path d="M20.805 4.442c-.176-.304-.461-.443-.461-.443L26.57.405a.66.66 0 1 1 .659 1.141l-5.863 3.385s-.384-.185-.56-.49Z"/><path d="M19.241 19.377A9.313 9.313 0 0 0 21.37 4.929L12.93 9.8a.66.66 0 1 1-.659-1.142l8.079-4.664a9.313 9.313 0 0 0-12.551 13.7l8.66-5a.66.66 0 0 1 .658 1.142l-8.299 4.792a9.316 9.316 0 0 0 10.423.749Z"/><path d="M1.053 22.35a.66.66 0 0 1 .241-.901l6.496-3.75s.394.17.586.369c.191.198.452.554.452.554L1.954 22.59a.66.66 0 0 1-.9-.242Z"/></g></svg>