<svg fill="none" viewBox="0 0 30 30" xmlns="http://www.w3.org/2000/svg" xmlns:xlink="http://www.w3.org/1999/xlink"><clipPath id="a"><path d="m0 0h30v30h-30z"/></clipPath><g clip-path="url(#a)" clip-rule="evenodd" fill="#5163ba" fill-rule="evenodd"><path d="m21.8053 7.4419c-.1765-.30401-.4615-.44284-.4615-.44284l6.2257-3.59441c.3152-.182.7183-.07399.9003.24125.182.31523.074.71833-.2413.90033l-5.8628 3.38489s-.3838-.18521-.5604-.48922z"/><path d="m20.241 22.3767c4.4545-2.5717 5.9807-8.2676 3.4089-12.72208-.3673-.63617-.7983-1.2126-1.2803-1.72591l-8.4386 4.87199c-.3152.182-.7183.074-.9003-.2412-.182-.3153-.074-.7184.2413-.9004l8.0789-4.66433c-2.9049-2.28806-7.0252-2.71081-10.4231-.74904-4.45445 2.57178-5.98066 8.26767-3.40888 12.72217.3673.6361.79833 1.2126 1.28035 1.7259l8.65883-4.9992c.3152-.182.7183-.0739.9003.2413s.074.7183-.2412.9003l-8.29918 4.7915c2.90488 2.2881 7.02518 2.7108 10.42298.749z"/><path d="m2.05318 25.3494c-.182-.3153-.07399-.7183.24124-.9004l6.49527-3.75s.39428.1706.58592.3688c.19164.1981.45206.554.45206.554l-6.87415 3.9688c-.31524.182-.71834.074-.90034-.2412z"/></g></svg>